<svg width="3675" height="980" viewBox="0 0 3675 980" fill="none" xmlns="http://www.w3.org/2000/svg">
<path d="M502.177 506.282C487.522 507.259 471.891 511.167 459.19 515.075C400.57 532.661 341.95 565.878 305.801 616.682C293.1 634.268 284.306 652.832 277.467 672.372C271.605 689.958 267.698 708.521 261.836 727.084C255.974 746.624 249.135 764.21 235.457 779.842C220.802 797.428 200.285 821.853 173.906 823.807C173.906 823.807 199.308 810.129 230.572 756.394C242.296 736.854 247.18 712.428 253.042 689.957C263.789 649.9 282.353 611.797 310.686 581.51C333.157 557.085 360.512 538.522 389.822 523.867C417.178 510.189 445.512 498.466 474.822 491.627C480.684 490.65 487.523 489.672 494.362 488.695C391.777 440.822 249.134 501.397 199.307 568.81C130.917 662.602 152.412 803.29 75.2285 888.289L87.9295 890.242C117.24 890.242 147.527 890.243 176.837 891.22C212.009 891.22 248.158 888.288 281.376 874.61C463.098 801.335 449.419 653.809 502.177 506.282Z" fill="#7FCD4E"/>
<path d="M637.981 341.169V51H290.169V341.169H0V688.981H123.102C128.964 662.602 136.78 636.223 146.55 610.821H78.16V420.306H368.329V130.137H558.844V420.306H849.013V610.821H558.844V900.99H368.329V857.025C346.835 873.634 321.433 888.289 290.169 900.013C290.169 900.013 290.169 900.013 289.192 900.013V979.15H637.004V688.981H927.173V341.169H637.981Z" fill="url(#paint0_linear_205_11)"/>
<path d="M1262.67 499.087C1283.14 499.087 1301.11 496.462 1316.6 491.214C1332.34 485.965 1345.33 478.617 1355.57 469.17C1366.06 459.46 1373.94 447.782 1379.18 434.135C1384.43 420.489 1387.06 405.268 1387.06 388.473C1387.06 371.94 1384.43 357.112 1379.18 343.991C1374.2 330.869 1366.59 319.716 1356.35 310.531C1346.12 301.346 1333.13 294.391 1317.38 289.668C1301.9 284.682 1283.66 282.188 1262.67 282.188H1178.43V499.087H1262.67ZM1262.67 210.152C1299.67 210.152 1331.69 214.482 1358.72 223.142C1386.01 231.802 1408.45 244.005 1426.03 259.751C1443.87 275.234 1457.13 293.998 1465.79 316.042C1474.45 337.824 1478.78 361.967 1478.78 388.473C1478.78 415.503 1474.18 440.302 1465 462.871C1455.81 485.178 1442.17 504.467 1424.06 520.737C1405.95 536.745 1383.38 549.342 1356.35 558.527C1329.59 567.45 1298.36 571.911 1262.67 571.911H1178.43V777H1086.31V210.152H1262.67ZM1633.42 423.113C1649.95 406.843 1668.06 393.852 1687.74 384.143C1707.42 374.17 1730.39 369.184 1756.63 369.184C1778.67 369.184 1797.96 372.858 1814.49 380.206C1831.29 387.554 1845.33 397.92 1856.61 411.304C1868.16 424.688 1876.82 440.827 1882.6 459.722C1888.37 478.355 1891.26 498.956 1891.26 521.525V777H1807.02V521.525C1807.02 494.494 1800.72 473.5 1788.12 458.541C1775.79 443.583 1756.89 436.104 1731.44 436.104C1712.54 436.104 1694.96 440.434 1678.69 449.094C1662.68 457.754 1647.59 469.563 1633.42 484.522V777H1548.78V194.406H1633.42V423.113ZM2204.63 601.434C2174.45 602.484 2149 604.977 2128.27 608.914C2107.53 612.588 2090.74 617.443 2077.88 623.479C2065.02 629.252 2055.7 636.206 2049.93 644.342C2044.42 652.477 2041.66 661.4 2041.66 671.11C2041.66 680.557 2043.11 688.692 2045.99 695.516C2049.14 702.076 2053.34 707.587 2058.59 712.049C2064.1 716.247 2070.4 719.397 2077.49 721.496C2084.83 723.333 2092.84 724.252 2101.5 724.252C2123.54 724.252 2142.44 720.184 2158.18 712.049C2174.19 703.651 2189.67 691.579 2204.63 675.833V601.434ZM1980.26 431.38C2025.66 389.129 2079.72 368.003 2142.44 368.003C2165.53 368.003 2186 371.808 2203.85 379.419C2221.95 386.767 2237.04 397.264 2249.12 410.91C2261.45 424.557 2270.77 440.827 2277.06 459.722C2283.62 478.355 2286.91 499.087 2286.91 521.918V777H2249.12C2240.98 777 2234.81 775.819 2230.61 773.457C2226.42 770.833 2222.87 765.716 2219.99 758.105L2211.72 725.433C2201.48 734.618 2191.38 742.884 2181.41 750.232C2171.44 757.318 2161.07 763.354 2150.31 768.34C2139.81 773.326 2128.4 777 2116.06 779.362C2103.99 781.986 2090.61 783.298 2075.91 783.298C2059.64 783.298 2044.42 781.068 2030.25 776.606C2016.34 772.145 2004.27 765.453 1994.03 756.53C1983.8 747.345 1975.66 736.061 1969.63 722.677C1963.85 709.293 1960.97 693.547 1960.97 675.44C1960.97 659.956 1965.03 644.867 1973.17 630.17C1981.57 615.474 1995.21 602.353 2014.11 590.806C2033.27 578.997 2058.33 569.287 2089.3 561.676C2120.52 554.066 2158.97 549.736 2204.63 548.686V521.918C2204.63 493.051 2198.47 471.532 2186.13 457.36C2173.8 443.189 2155.69 436.104 2131.81 436.104C2115.54 436.104 2101.89 438.203 2090.87 442.402C2079.85 446.338 2070.27 450.668 2062.13 455.392C2054 460.116 2046.78 464.577 2040.48 468.776C2034.19 472.713 2027.49 474.681 2020.41 474.681C2014.63 474.681 2009.65 473.237 2005.45 470.351C2001.51 467.202 1998.23 463.396 1995.61 458.935L1980.26 431.38ZM2465.96 449.881C2478.55 424.425 2493.78 404.481 2511.62 390.047C2529.47 375.351 2550.85 368.003 2575.79 368.003C2584.45 368.003 2592.58 369.053 2600.19 371.152C2607.8 372.989 2614.62 375.876 2620.66 379.812L2614.76 443.583C2613.71 448.044 2612 451.193 2609.64 453.03C2607.54 454.605 2604.65 455.392 2600.98 455.392C2597.04 455.392 2591.4 454.736 2584.05 453.424C2576.7 451.849 2568.96 451.062 2560.83 451.062C2549.02 451.062 2538.52 452.768 2529.34 456.179C2520.41 459.591 2512.28 464.577 2504.93 471.138C2497.84 477.699 2491.55 485.703 2486.03 495.15C2480.52 504.598 2475.41 515.357 2470.68 527.429V777H2386.05V375.482H2435.25C2444.18 375.482 2450.34 377.188 2453.76 380.6C2457.17 383.749 2459.53 389.391 2460.84 397.526L2465.96 449.881ZM2676.67 777V375.482H2727.84C2739.39 375.482 2746.74 380.862 2749.89 391.622L2755.4 426.656C2762.75 418.258 2770.36 410.648 2778.23 403.825C2786.1 396.739 2794.5 390.703 2803.42 385.717C2812.61 380.468 2822.32 376.401 2832.55 373.514C2843.05 370.627 2854.33 369.184 2866.41 369.184C2879.26 369.184 2891.07 371.021 2901.83 374.695C2912.59 378.369 2922.04 383.618 2930.18 390.441C2938.57 397.264 2945.79 405.531 2951.83 415.24C2957.86 424.95 2962.85 435.841 2966.79 447.913C2972.82 434.004 2980.43 422.064 2989.62 412.091C2998.8 402.119 3009.04 393.984 3020.32 387.685C3031.61 381.387 3043.55 376.794 3056.14 373.908C3069 370.759 3081.99 369.184 3095.11 369.184C3116.63 369.184 3135.79 372.596 3152.59 379.419C3169.64 386.242 3183.95 396.214 3195.49 409.336C3207.3 422.195 3216.22 438.072 3222.26 456.967C3228.3 475.862 3231.31 497.381 3231.31 521.525V777H3146.68V521.525C3146.68 493.182 3140.51 471.925 3128.18 457.754C3116.11 443.32 3098.13 436.104 3074.25 436.104C3063.49 436.104 3053.39 437.941 3043.94 441.615C3034.49 445.289 3026.23 450.668 3019.14 457.754C3012.05 464.84 3006.41 473.762 3002.21 484.522C2998.28 495.019 2996.31 507.353 2996.31 521.525V777H2911.67V521.525C2911.67 492.132 2905.77 470.613 2893.96 456.967C2882.15 443.058 2864.83 436.104 2842 436.104C2826.25 436.104 2811.69 440.171 2798.31 448.307C2784.92 456.179 2772.59 467.07 2761.3 480.979V777H2676.67ZM3544.72 601.434C3514.54 602.484 3489.08 604.977 3468.35 608.914C3447.62 612.588 3430.82 617.443 3417.96 623.479C3405.1 629.252 3395.79 636.206 3390.01 644.342C3384.5 652.477 3381.75 661.4 3381.75 671.11C3381.75 680.557 3383.19 688.692 3386.08 695.516C3389.23 702.076 3393.43 707.587 3398.67 712.049C3404.19 716.247 3410.48 719.397 3417.57 721.496C3424.92 723.333 3432.92 724.252 3441.58 724.252C3463.63 724.252 3482.52 720.184 3498.27 712.049C3514.28 703.651 3529.76 691.579 3544.72 675.833V601.434ZM3320.34 431.38C3365.74 389.129 3419.8 368.003 3482.52 368.003C3505.62 368.003 3526.08 371.808 3543.93 379.419C3562.04 386.767 3577.13 397.264 3589.2 410.91C3601.53 424.557 3610.85 440.827 3617.15 459.722C3623.71 478.355 3626.99 499.087 3626.99 521.918V777H3589.2C3581.06 777 3574.9 775.819 3570.7 773.457C3566.5 770.833 3562.96 765.716 3560.07 758.105L3551.8 725.433C3541.57 734.618 3531.46 742.884 3521.49 750.232C3511.52 757.318 3501.15 763.354 3490.39 768.34C3479.9 773.326 3468.48 777 3456.15 779.362C3444.08 781.986 3430.69 783.298 3416 783.298C3399.72 783.298 3384.5 781.068 3370.33 776.606C3356.42 772.145 3344.35 765.453 3334.12 756.53C3323.88 747.345 3315.75 736.061 3309.71 722.677C3303.94 709.293 3301.05 693.547 3301.05 675.44C3301.05 659.956 3305.12 644.867 3313.25 630.17C3321.65 615.474 3335.3 602.353 3354.19 590.806C3373.35 578.997 3398.41 569.287 3429.38 561.676C3460.61 554.066 3499.05 549.736 3544.72 548.686V521.918C3544.72 493.051 3538.55 471.532 3526.22 457.36C3513.88 443.189 3495.77 436.104 3471.89 436.104C3455.62 436.104 3441.98 438.203 3430.95 442.402C3419.93 446.338 3410.35 450.668 3402.22 455.392C3394.08 460.116 3386.87 464.577 3380.57 468.776C3374.27 472.713 3367.58 474.681 3360.49 474.681C3354.72 474.681 3349.73 473.237 3345.53 470.351C3341.6 467.202 3338.32 463.396 3335.69 458.935L3320.34 431.38Z" fill="#2F5D92"/>
<defs>
<linearGradient id="paint0_linear_205_11" x1="463.586" y1="51" x2="463.586" y2="979.15" gradientUnits="userSpaceOnUse">
<stop stop-color="#335E90"/>
<stop offset="1" stop-color="#01A067" stop-opacity="0.96"/>
</linearGradient>
</defs>
</svg>
